<svg width="18" height="19" viewBox="0 0 18 19" fill="none" xmlns="http://www.w3.org/2000/svg">
<path d="M17 13.1944C15.75 13.1944 14.55 12.9833 13.43 12.5928C13.08 12.4767 12.69 12.5611 12.41 12.8461L10.21 15.1683C7.38 13.6483 5.06 11.21 3.62 8.21222L5.82 5.87944C6.1 5.605 6.18 5.19333 6.07 4.82389C5.7 3.64167 5.5 2.375 5.5 1.05556C5.5 0.475 5.05 0 4.5 0H1C0.45 0 0 0.475 0 1.05556C0 10.9672 7.61 19 17 19C17.55 19 18 18.525 18 17.9444V14.25C18 13.6694 17.55 13.1944 17 13.1944Z" fill="#222222"/>
</svg>
