<svg width="19" height="19" viewBox="0 0 19 19" fill="none" xmlns="http://www.w3.org/2000/svg">
<path d="M9.69768 1C7.97744 1 6.29583 1.49852 4.86551 2.43251C3.43518 3.3665 2.32038 4.69402 1.66207 6.24719C1.00377 7.80036 0.831526 9.50943 1.16713 11.1583C1.50273 12.8071 2.3311 14.3217 3.54749 15.5104C4.76389 16.6992 6.31366 17.5087 8.00085 17.8367C9.68803 18.1646 11.4368 17.9963 13.0261 17.353C14.6154 16.7096 15.9738 15.6202 16.9295 14.2223C17.8852 12.8245 18 11.5675 18 9.88636C17.8643 7.82576 15.6977 2.62273 9.69768 2.93182C2.19769 3.31818 0.604651 14.9091 9.30233 16.0682C14.0038 16.6947 17.9884 10.6591 14.0465 7.18182C12.8605 6.15151 9.30233 4.69805 7.32558 7.18182C4.55814 10.6591 7.88166 13.7605 10.4884 13.3636C13.0261 12.9773 13.6512 9.11363 10.4884 9.11363" stroke="white" stroke-width="0.6" stroke-linecap="round" stroke-linejoin="round"/>
</svg>
